<svg version="1.1" id="prefix__Layer_1" xmlns="http://www.w3.org/2000/svg" x="0" y="0" viewBox="0 0 600 600"
	fill="var(--fill)" xml:space="preserve">
	<style></style>
	<g>
		<path d="M560.16,254.97c0,76.73-0.01,153.46,0.04,230.19c0,1.92-0.61,2.48-2.45,2.47c-25.73-0.04-51.46-0.04-77.19,0
            c-1.69,0-2.18-0.56-2.18-2.25c0.04-140.41,0.02-280.82,0.05-421.23c0-20.92,14.14-37.64,34.81-41.34c2.59-0.46,5.25-0.71,7.87-0.73
            c12.18-0.08,24.37,0.01,36.55-0.08c2-0.01,2.54,0.56,2.54,2.55C560.16,101.36,560.17,178.16,560.16,254.97z" />
		<path
			d="M239.72,425.49c0-76.72,0.01-153.45-0.04-230.17c0-1.89,0.51-2.46,2.41-2.46c25.59,0.05,51.17,0.05,76.76,0.01
            c1.85,0,2.63,0.38,2.63,2.5c-0.05,139.82-0.06,279.65-0.02,419.47c0,10.33-2.51,19.72-9.07,27.81c-8.1,9.99-18.66,15.33-31.49,15.6
            c-13.04,0.28-26.09,0.04-39.13,0.11c-1.82,0.01-2.1-0.68-2.09-2.28C239.72,579.22,239.72,502.36,239.72,425.49z" />
		<path d="M441.18,208.06c0,33.05-0.01,66.1,0.04,99.15c0,1.49-0.51,2.36-1.7,3.16c-12.57,8.53-25.12,17.08-37.63,25.67
            c-1.21,0.83-2.04,0.77-3.23-0.04c-12.4-8.52-24.83-16.99-37.27-25.45c-1.17-0.8-1.97-1.56-1.97-3.23
            c0.05-65.96,0.05-131.92,0.05-197.87c0-3.11,0-3.12,2.99-3.12c25.3,0,50.59,0,75.89,0c2.84,0,2.83,0.01,2.83,2.79
            C441.17,142.1,441.18,175.08,441.18,208.06z" />
		<path d="M359.59,345.1c2.58,1.75,4.87,3.29,7.15,4.85c10.6,7.22,21.2,14.42,31.76,21.7c1.35,0.93,2.27,0.89,3.61-0.04
            c12.27-8.45,24.6-16.81,36.92-25.2c0.56-0.38,1.14-0.74,1.96-1.26c0.09,0.79,0.19,1.25,0.19,1.72c0,75.42-0.01,150.85,0.04,226.27
            c0,2.07-0.68,2.52-2.59,2.52c-25.51-0.05-51.02-0.05-76.53,0c-2.03,0-2.69-0.56-2.69-2.69c0.05-75.28,0.04-150.56,0.05-225.84
            C359.46,346.58,359.53,346.05,359.59,345.1z" />
		<path d="M560.57,545.93c-0.05,23.3-18.44,41.98-41.22,41.87c-22.47-0.1-40.68-18.97-40.6-42.05c0.08-23.21,18.39-41.81,41.1-41.76
            C542.33,504.04,560.62,522.88,560.57,545.93z" />
		<!--<path d="M284.32,721.88c-0.91,4.61-1.84,9.22-2.73,13.84c-1.92,9.99-3.81,19.98-5.72,29.97c-0.6,3.17-1.25,6.32-1.82,9.5
            c-0.23,1.29-0.84,1.81-2.17,1.77c-2.58-0.08-5.16-0.08-7.74,0c-1.43,0.05-2.06-0.56-2.32-1.91c-1.22-6.26-2.49-12.5-3.73-18.75
            c-1.91-9.62-3.81-19.25-5.75-28.86c-0.4-1.97-0.91-3.92-1.37-5.88c-0.22,0.04-0.43,0.07-0.65,0.11c0,1.75-0.01,3.5,0,5.25
            c0.13,15.99,0.25,31.97,0.43,47.96c0.02,1.62-0.53,2.15-2.1,2.1c-2.94-0.09-5.88-0.07-8.81,0c-1.43,0.03-2.03-0.38-2.03-1.95
            c0.04-29.04,0.05-58.08,0.02-87.11c0-1.47,0.45-2.03,1.96-2.01c4.66,0.07,9.32,0.06,13.97,0c1.45-0.02,1.99,0.6,2.25,1.96
            c3.75,19.63,7.54,39.24,11.32,58.86c0.1,0.53,0.28,1.05,0.6,2.25c0.45-1.07,0.73-1.51,0.82-1.99c1.71-9.3,3.41-18.6,5.1-27.9
            c1.62-8.88,3.23-17.76,4.85-26.63c0.28-1.55,0.6-3.1,0.82-4.65c0.19-1.38,0.85-1.92,2.29-1.9c4.66,0.07,9.32,0.08,13.97,0
            c1.66-0.03,2.04,0.66,2.03,2.19c-0.09,16.35-0.14,32.69-0.17,49.04c-0.03,12.4-0.06,24.81,0.02,37.21c0.01,2.11-0.66,2.76-2.7,2.65
            c-2.64-0.15-5.3-0.1-7.95-0.01c-1.64,0.05-2.27-0.45-2.25-2.2c0.13-13.19,0.16-26.38,0.24-39.57c0.02-3.66,0.13-7.31,0.17-10.97
            c0.01-0.76-0.08-1.52-0.12-2.27C284.82,721.92,284.57,721.9,284.32,721.88z" />
		<path d="M377.21,726.72c-0.06,0.67-0.17,1.33-0.16,2c0.14,15.19,0.26,30.39,0.49,45.58c0.03,2.07-0.58,2.8-2.66,2.68
            c-2.71-0.16-5.45-0.14-8.16,0c-1.96,0.1-2.56-0.53-2.55-2.54c0.08-18.93,0.04-37.85,0.05-56.78c0-9.82,0.05-19.64-0.02-29.46
            c-0.01-1.79,0.55-2.41,2.33-2.31c2.43,0.13,4.87,0.08,7.31,0.02c1.25-0.03,1.96,0.41,2.38,1.64c5.29,15.29,10.61,30.57,15.95,45.84
            c0.29,0.84,0.73,1.64,1.1,2.45c0.19-0.03,0.38-0.05,0.57-0.08c0.04-0.71,0.13-1.42,0.11-2.13c-0.26-15.12-0.5-30.24-0.82-45.36
            c-0.04-1.72,0.4-2.46,2.25-2.37c2.86,0.13,5.74,0.13,8.6,0c1.86-0.09,2.26,0.66,2.25,2.38c-0.06,26.02-0.06,52.05-0.07,78.07
            c0,2.87-0.1,5.74,0.02,8.6c0.07,1.68-0.61,2.11-2.14,2.04c-2.07-0.09-4.16-0.11-6.23,0.01c-1.49,0.08-2.19-0.56-2.65-1.89
            c-2.97-8.52-5.99-17.02-9-25.52c-2.6-7.36-5.21-14.71-7.82-22.06c-0.11-0.31-0.33-0.57-0.5-0.86
            C377.62,726.66,377.42,726.69,377.21,726.72z" />
		<path d="M500.67,728.3c1.37,1.29,2.95,2.16,3.53,3.46c1.2,2.71,2.5,5.62,2.65,8.5c0.59,11.66,0.74,23.35,1.09,35.03
            c0.04,1.24-0.48,1.65-1.64,1.64c-3.65-0.02-7.31-0.05-10.96,0.01c-1.65,0.03-1.85-0.93-1.86-2.21c-0.08-9.96-0.13-19.93-0.29-29.89
            c-0.04-2.35-0.27-4.72-0.71-7.02c-0.49-2.56-2.08-3.84-4.7-3.87c-6.55-0.08-5.42-0.66-5.45,4.97c-0.06,11.9-0.05,23.8,0.02,35.7
            c0.01,1.78-0.52,2.4-2.31,2.34c-3.44-0.11-6.88-0.08-10.32-0.01c-1.49,0.03-1.98-0.51-1.98-2.01c0.06-29.03,0.08-58.07,0.06-87.1
            c0-1.54,0.55-1.97,2-1.96c7.16,0.05,14.33-0.03,21.5,0.05c8.33,0.09,13.92,3.1,15.37,12.82c0.98,6.55,1.21,13.13,0.21,19.71
            C506.27,722.5,504.67,726,500.67,728.3z M482.36,709.99c0,2.72-0.04,5.44,0.01,8.16c0.09,4.98-1.08,4.72,4.93,4.6
            c3.27-0.07,4.8-1.11,5.13-4.3c0.47-4.6,0.74-9.27,0.54-13.89c-0.28-6.62-1.7-7.63-8.4-7.57c-1.7,0.02-2.27,0.6-2.23,2.26
            C482.42,702.83,482.36,706.41,482.36,709.99z" />
		 <path d="M521.36,731.39c0-7.67-0.26-15.35,0.1-23c0.19-4.01,1.05-8.11,2.32-11.93c2.04-6.11,6.61-9.64,12.98-10.9
            c4.39-0.87,8.72-0.7,12.96,0.58c6.09,1.83,9.46,6.35,10.81,12.28c0.9,3.95,1.5,8.06,1.54,12.11c0.16,14.11,0.14,28.23-0.08,42.35
            c-0.08,5.13-0.66,10.28-2.88,15.09c-2.86,6.19-8.06,8.92-14.39,9.82c-3.63,0.52-7.26,0.08-10.78-1.18
            c-7.06-2.53-10.48-8.01-11.66-14.97c-0.73-4.28-0.85-8.69-0.96-13.04c-0.15-5.73-0.04-11.47-0.04-17.2
            C521.32,731.39,521.34,731.39,521.36,731.39z M536.02,731.08c-0.05,0-0.09,0-0.14,0c0,7.09-0.08,14.18,0.04,21.27
            c0.04,2.78,0.35,5.57,0.83,8.31c0.57,3.23,2.23,4.55,5.04,4.49c2.7-0.06,4.45-1.56,4.93-4.7c0.44-2.82,0.76-5.69,0.77-8.54
            c0.08-14.33,0.07-28.65,0-42.98c-0.01-2.35-0.3-4.72-0.71-7.03c-0.46-2.6-2.11-4-4.47-4.21c-2.47-0.21-4.49,0.94-5.32,3.43
            c-0.56,1.67-0.92,3.49-0.94,5.24C535.96,714.61,536.02,722.84,536.02,731.08z" />
		<path d="M351.73,731.91c-0.28,9.09-0.39,18.2-0.95,27.27c-0.18,2.99-1.25,6.03-2.41,8.84c-2.61,6.3-8.04,8.87-14.36,9.76
            c-3.56,0.5-7.13,0.05-10.57-1.15c-7.07-2.48-10.53-7.93-11.74-14.9c-0.71-4.07-0.94-8.26-0.97-12.39
            c-0.11-13.04-0.13-26.09,0.06-39.13c0.06-3.83,0.63-7.72,1.56-11.44c1.99-7.92,7.27-12.66,15.39-13.42
            c3.83-0.36,7.91,0.02,11.65,0.97c5.98,1.53,9.38,6.19,10.46,11.97c1.05,5.66,1.31,11.5,1.57,17.27c0.25,5.43,0.05,10.89,0.05,16.34
            C351.56,731.91,351.65,731.91,351.73,731.91z M325.39,730.96c-0.03,0-0.06,0-0.09,0c0,7.23-0.09,14.47,0.04,21.7
            c0.05,2.91,0.47,5.84,0.97,8.72c0.38,2.17,1.8,3.52,4.12,3.74c2.61,0.24,4.33-0.5,5.07-2.96c0.77-2.57,1.3-5.32,1.32-7.99
            c0.13-15.61,0.09-31.23,0.05-46.85c0-1.77-0.31-3.57-0.65-5.32c-0.51-2.69-2.16-4.15-4.61-4.33c-2.45-0.17-4.47,1.03-5.26,3.54
            c-0.55,1.75-0.9,3.63-0.92,5.46C325.33,714.77,325.39,722.87,325.39,730.96z" />
		<path d="M444.43,737.73c0,12.19-0.05,24.38,0.04,36.57c0.02,2.08-0.58,2.78-2.66,2.67c-3.07-0.15-6.17-0.14-9.24,0
            c-1.94,0.08-2.56-0.5-2.56-2.53c0.08-22.87,0.07-45.75,0.07-68.62c0-1.65-0.1-3.31,0.03-4.95c0.15-1.93-0.7-2.54-2.52-2.45
            c-1.93,0.1-3.87-0.05-5.8,0.04c-1.61,0.07-2.38-0.44-2.32-2.19c0.09-2.87,0.07-5.74,0-8.6c-0.03-1.28,0.37-1.79,1.71-1.79
            c10.54,0.04,21.07,0.03,31.61,0.01c1.23,0,1.85,0.37,1.82,1.72c-0.06,2.94-0.06,5.88,0,8.82c0.03,1.48-0.58,2.07-2.05,2.02
            c-1.79-0.06-3.59,0.08-5.37-0.03c-2.06-0.13-2.74,0.67-2.72,2.74c0.08,11.62,0.04,23.23,0.04,34.85c0,0.57,0,1.15,0,1.72
            C444.48,737.73,444.45,737.73,444.43,737.73z" /> -->
	</g>
</svg>